<?xml version="1.0" encoding="UTF-8"?>
<svg width="84px" height="35px" viewBox="0 0 84 35" version="1.1" xmlns="http://www.w3.org/2000/svg" xmlns:xlink="http://www.w3.org/1999/xlink">
    <!-- Generator: Sketch 54.1 (76490) - https://sketchapp.com -->
    <title>lumi_header_logo</title>
    <desc>Created with Sketch.</desc>
    <defs>
        <polygon id="path-1" points="0.0554341214 0.0408446333 6.961193 0.0408446333 6.961193 6.87873115 0.0554341214 6.87873115"></polygon>
    </defs>
    <g id="Page-1" stroke="none" stroke-width="1" fill="none" fill-rule="evenodd">
        <g id="Choose_user" transform="translate(-72.000000, -22.000000)">
            <g id="Header">
                <g id="lumi_header_logo" transform="translate(72.000000, 22.000000)">
                    <path d="M50.4742945,4.87871884 C50.474603,4.85733422 50.4755284,4.78157155 50.4755284,4.75957593 C50.482932,2.34555729 49.0346114,1.52347122 47.244185,1.51797231 C45.4543754,1.51216792 43.9995768,2.67121458 43.9924817,4.73910779 C43.9921732,4.76293637 43.9924817,4.98319801 43.9921732,5.0064156 C43.9860036,7.11096817 45.3115485,8.13254225 47.0782219,8.13834664 C47.7013545,8.14017961 48.3069036,7.91808501 48.8297797,7.5652387 L48.8279289,8.02653561 L50.4647316,8.03172901 L50.474603,4.95417602 L50.4712097,4.95417602 C50.4718266,4.92943095 50.4742945,4.9040749 50.4742945,4.87871884 L50.4742945,4.87871884 Z M48.8368748,5.20132118 C48.8347154,6.05365122 48.134154,6.74284713 47.2728737,6.74009768 C46.4119019,6.73704273 45.7159677,6.0435699 45.7190525,5.19123986 L45.7218289,4.45683074 C45.7246052,3.60388971 46.4242412,2.9149993 47.285213,2.91774875 C48.1464933,2.9204982 48.8424275,3.61366554 48.8393427,4.46691207 L48.8368748,5.20132118 Z" id="Fill-1" fill="#FEFEFE"></path>
                    <path d="M51.5256611,4.95390107 L51.5225763,4.95390107 L51.5065352,10.115844 L53.1430294,10.1210374 L53.1516669,7.57565607 C53.6711497,7.93125183 54.274848,8.15792885 54.8992145,8.16006731 C56.6649625,8.16556622 57.997294,7.151935 58.0040806,5.04707694 C58.0040806,5.02416484 58.0062399,4.8039032 58.0065484,4.78038012 C58.012718,2.7124869 56.565323,1.54366441 54.774588,1.53816551 C52.9847785,1.53236111 51.5318307,2.34497685 51.5235017,4.75960648 C51.5231932,4.7812966 51.5235017,4.85675378 51.5231932,4.8781384 C51.5231932,4.90318896 51.5253526,4.92854502 51.5256611,4.95390107 L51.5256611,4.95390107 Z M53.1618468,4.47641295 C53.1643147,3.62347192 53.8642591,2.93549799 54.7258479,2.93794195 C55.5858943,2.94099689 56.2830624,3.63355324 56.2799776,4.48649427 L56.2775097,5.22090339 C56.2750419,6.07353893 55.5732465,6.76273483 54.7132002,6.75998538 C53.8519199,6.75723593 53.1562942,6.0634576 53.159379,5.21082206 L53.1618468,4.47641295 Z" id="Fill-3" fill="#FEFEFE"></path>
                    <path d="M60.7424706,3.20042294 L60.7335247,5.9950879 C60.7588201,6.09620663 60.810645,6.18785502 60.8843721,6.27156055 C60.9497702,6.33907487 61.0386128,6.40170127 61.1509001,6.45974525 C61.2668891,6.51870571 61.4158857,6.54864419 61.6009746,6.54925518 L62.6485777,6.55261562 L62.6433335,8.0693965 L60.9599501,8.0638976 C60.6021116,8.0296822 60.2812908,7.93742282 59.9962539,7.78528649 C59.7577978,7.65850621 59.5403183,7.47276547 59.3416562,7.22470383 C59.1448451,6.97816965 59.0485988,6.63723763 59.0498328,6.20312975 L59.0695756,6.10989263e-05 L60.7526505,0.00556000244 L60.7474063,1.7096091 L62.3326926,1.71480251 L62.3283739,3.20561635 L60.7424706,3.20042294 Z" id="Fill-5" fill="#FEFEFE"></path>
                    <path d="M66.9804905,1.56569058 C67.0091793,1.56569058 67.1066594,1.5699675 67.2766327,1.57852135 C67.446606,1.58799168 67.6477359,1.62434555 67.8763207,1.68758294 C68.1073733,1.75020934 68.3486059,1.84980059 68.6064964,1.98299625 C68.8637699,2.11863587 69.10346,2.31170849 69.3227904,2.56251958 C69.5433546,2.81394167 69.7235078,3.13073961 69.8641754,3.51016396 C70.0039175,3.89172676 70.0727088,4.36096653 70.0714749,4.92063271 L70.0606781,8.09166706 L68.3806879,8.08616816 L68.3908678,4.9151338 C68.3914848,4.73153152 68.3739013,4.5445688 68.3362666,4.35241268 C68.3014082,4.15964556 68.2335423,3.98245867 68.1329773,3.82512893 C68.030253,3.66596622 67.8889685,3.53368704 67.7051135,3.42859689 C67.5218755,3.32320124 67.280026,3.27035066 66.9749378,3.26943418 C66.6710836,3.2685177 66.4264578,3.3198408 66.2432198,3.42401447 C66.0602903,3.52788264 65.9165379,3.65924534 65.815356,3.81749156 C65.7132486,3.97451581 65.6432233,4.15109171 65.6074395,4.34355333 C65.5691878,4.53570946 65.5497534,4.72267218 65.5491365,4.90627446 L65.5386481,8.07700332 L63.8543392,8.07180991 L63.8648276,4.90077555 C63.8666785,4.34110937 63.941331,3.8724806 64.0844664,3.49183428 C64.2282188,3.11302092 64.4114568,2.79775046 64.6329465,2.54724485 C64.8532022,2.29796123 65.0950517,2.10641609 65.3526338,1.97291493 C65.6108328,1.84094125 65.8526822,1.74318296 66.0852773,1.68177854 C66.313862,1.62006862 66.5112902,1.58493674 66.6772532,1.57668838 C66.8416738,1.56935651 66.9440897,1.56569058 66.9804905,1.56569058" id="Fill-7" fill="#FEFEFE"></path>
                    <path d="M6.21158302,33.0055492 L0,33.0055492 L0,1.81271354 C0.168122405,1.81271354 0.903542245,2.49916 2.47124511,3.02766572 C4.06362649,3.5644198 4.48285282,3.77734957 5.07328637,4.18396293 C5.66587928,4.59179828 6.27389627,5.63842291 6.21158302,6.95968723 L6.21158302,33.0055492 Z" id="Fill-9" fill="#FEFEFE"></path>
                    <path d="M41.0735991,20.5126209 C41.0735991,19.2652862 41.2972482,18.1758924 41.7482481,17.2453557 C42.1986311,16.3163465 42.8152855,15.5327527 43.6003709,14.8961019 C44.3839139,14.2594511 45.3105922,13.7816575 46.3782466,13.4633321 C47.4443586,13.1450066 48.6088762,12.9858439 49.86964,12.9858439 C51.4117389,12.9858439 52.7881832,13.2406265 53.9977391,13.749275 C55.2057525,14.2594511 56.1839473,14.9718646 56.9298555,15.889876 C57.6757637,14.9718646 58.6403853,14.2594511 59.8234118,13.749275 C61.0064382,13.2406265 62.3690009,12.9858439 63.9126422,12.9858439 C65.1468766,12.9858439 66.2975125,13.1450066 67.3660924,13.4633321 C68.4322043,13.7816575 69.3576488,14.2594511 70.1427341,14.8961019 C70.927511,15.5327527 71.5441655,16.3163465 71.9951654,17.2453557 C72.4446229,18.1758924 72.6710483,19.2652862 72.6710483,20.5126209 L72.6710483,33.0055186 L66.4594653,33.0055186 L66.4594653,22.269826 C66.4594653,20.9702518 66.1880016,20.0412426 65.648159,19.4803545 C65.1080079,18.9206883 64.349452,18.6408552 63.3724912,18.6408552 C62.3690009,18.6408552 61.551525,18.9717059 60.9225313,19.6334073 C60.2919951,20.2963307 59.9767271,21.3533421 59.9767271,22.8047471 L59.9767271,33.0055186 L53.7654525,33.0055186 L53.7654525,22.8047471 C53.7654525,21.3533421 53.4563541,20.2963307 52.8396996,19.6334073 C52.2230451,18.9717059 51.4117389,18.6408552 50.409791,18.6408552 C49.4325217,18.6408552 48.6662537,18.9206883 48.1137634,19.4803545 C47.5612731,20.0412426 47.2851821,20.9702518 47.2851821,22.269826 L47.2851821,33.0055186 L41.0735991,33.0055186 L41.0735991,20.5126209 Z" id="Fill-11" fill="#FEFEFE"></path>
                    <g id="Group-15" transform="translate(76.503406, 4.487105)">
                        <mask id="mask-2" fill="white">
                            <use xlink:href="#path-1"></use>
                        </mask>
                        <g id="Clip-14"></g>
                        <path d="M5.97796999,5.90481424 C5.32090445,6.55399034 4.50620487,6.87873115 3.5264677,6.87873115 C2.54950686,6.87873115 1.72832917,6.55399034 1.05738196,5.90481424 C0.389519561,5.25563813 0.0554341214,4.44729931 0.0554341214,3.47827032 C0.0554341214,2.51076879 0.389519561,1.69601459 1.05738196,1.03309122 C1.72832917,0.371695328 2.54950686,0.0408446333 3.5264677,0.0408446333 C4.50620487,0.0408446333 5.32090445,0.371695328 5.97796999,1.03309122 C6.63349313,1.69601459 6.96140894,2.51076879 6.96140894,3.47827032 C6.96140894,4.44729931 6.63349313,5.25563813 5.97796999,5.90481424" id="Fill-13" fill="#FEFEFE" mask="url(#mask-2)"></path>
                    </g>
                    <path d="M83.1164162,32.8249102 L76.9048332,32.8249102 C76.9048332,32.8249102 76.8249365,20.0146035 76.8249365,19.1555526 C76.8249365,18.2968071 76.416507,15.5290257 79.3939702,14.9272013 C81.0279966,14.5969616 83.1164162,13.5219259 83.1164162,13.5219259 L83.1164162,17.2312418 L83.1164162,32.8249102 Z" id="Fill-16" fill="#FEFEFE"></path>
                    <path d="M10.3676614,6.42363578 L10.3676614,19.5595998 C10.3676614,23.7824522 11.8196837,27.410201 14.5664028,30.0505912 C17.0481363,32.4346714 20.3538238,33.7476873 23.8735974,33.7476873 C27.3307493,33.7476873 30.7157166,32.4016779 33.1604323,30.0545626 C35.0850482,28.2066255 37.3798419,24.8550439 37.3798419,19.3830239 L37.379225,18.6308961 C37.3782995,18.120109 37.3776826,17.6267352 37.3798419,17.4568802 C37.4211784,14.3985733 35.8167663,12.3468713 32.9784282,11.827836 C32.9778112,11.827836 30.9578745,11.4933193 29.5370089,11.2418972 C28.726628,11.0986202 27.9804113,10.9238773 27.4822137,10.798319 L27.4007746,15.3724903 C27.4004661,15.3825716 27.3875099,15.8814443 27.3680756,19.3619447 L27.3677671,19.405936 C27.3662247,19.9781274 27.3597466,21.7194469 26.2384164,22.8323639 C25.662173,23.4042498 24.9224344,23.7189093 24.0398689,23.7665665 C23.1622391,23.8139181 22.1596743,23.4543509 21.5491895,22.8711617 C20.5821001,21.9467349 20.3791193,20.5597892 20.3794277,19.5595998 L20.3794277,13.5328015 C20.3794277,12.2075658 19.8216932,9.72175591 17.7326567,8.81321485 C16.7217629,8.37330257 16.0316898,8.19855964 15.1586872,7.97707602 C14.5327783,7.81852431 13.8232709,7.63889346 12.8583409,7.32728893 C11.8770613,7.01018549 10.9630307,6.66131061 10.3676614,6.42363578 M23.8735974,34.7310746 C20.0940824,34.7310746 16.5431521,33.3196893 13.8747873,30.7562838 C10.9306401,27.9261815 9.37465953,24.0546479 9.37465953,19.5595998 L9.37465953,4.93801535 L10.0684344,5.23587262 C10.0832415,5.24228801 11.5543896,5.87160697 13.1662054,6.39216983 C14.1009042,6.69399854 14.7937536,6.86965796 15.4048554,7.02454374 C16.2858785,7.24755482 17.0465939,7.44062744 18.1321402,7.91261665 C20.3704818,8.88622807 21.3724296,11.4371083 21.3724296,13.5328015 L21.3724296,19.5595998 C21.3724296,20.3694661 21.5226601,21.4787171 22.2389541,22.1633306 C22.6427563,22.5494758 23.3939087,22.8170891 23.9858847,22.7847067 C24.6247498,22.7498803 25.1315849,22.538478 25.5353871,22.137669 C26.3679786,21.3110005 26.3732228,19.8745648 26.3750737,19.40227 L26.3753822,19.3564458 C26.3945081,15.8475344 26.4071558,15.3685188 26.4077728,15.3498837 L26.512348,9.5112701 L27.1345551,9.68845699 C27.1465859,9.69181743 28.3539824,10.0336659 29.7116094,10.2737847 C31.1312411,10.5249013 33.1502524,10.8594179 33.1502524,10.8594179 C36.471364,11.4661303 38.4206584,13.9369709 38.3728438,17.4703219 C38.3703759,17.638344 38.3713014,18.1253024 38.3719184,18.6293686 L38.3728438,19.3830239 C38.3728438,25.1990308 35.9139379,28.7803445 33.8514308,30.7605607 C31.2231686,33.2839465 27.5864805,34.7310746 23.8735974,34.7310746" id="Fill-18" fill="#C1188C"></path>
                    <path d="M12.5643889,9.51841868 L12.5643889,19.559722 C12.5643889,23.1804444 13.785667,26.2680788 16.0961933,28.4890248 C18.1657955,30.4771839 20.9279387,31.5723822 23.8736283,31.5723822 C29.4938523,31.5723822 35.1831762,27.3855782 35.1831762,19.3831461 L35.1831762,17.1004901 C35.1831762,15.5702675 34.0846736,14.3980846 32.2436562,13.9633657 L29.6323605,13.5179545 L29.5941088,15.4315729 C29.5774508,15.6185356 29.5259344,16.4555909 29.564803,19.3645109 C29.5854713,20.9002325 29.1057826,23.0460268 27.6981816,24.4629109 C26.7122748,25.4551575 25.4262155,25.9604457 23.8757876,25.9650281 L23.8594381,25.9650281 C22.4379555,25.9653336 21.0408429,25.4087223 20.0237794,24.4366384 C18.8188508,23.2849236 18.1824535,21.5985932 18.182762,19.5594165 L18.182762,13.3511544 C18.182762,11.8200153 17.1764954,10.7184016 15.4221613,10.3292014 C15.0501326,10.2467179 13.4694735,9.7851155 12.5643889,9.51841868 M23.8736283,32.5557694 C20.6685057,32.5557694 17.6608113,31.3622019 15.4045778,29.1947174 C12.8966234,26.7843647 11.571387,23.4523347 11.571387,19.559722 L11.571387,8.19745986 L12.2108691,8.38717203 C13.0280365,8.63034576 15.2379978,9.28043835 15.6393322,9.36933729 C17.8536123,9.86118366 19.1757639,11.3495535 19.1757639,13.3511544 L19.1757639,19.559722 C19.1754554,21.325481 19.706969,22.7671102 20.713544,23.7291128 C21.5467525,24.5255373 22.6927612,24.9816408 23.8594381,24.9816408 L23.8730113,24.9816408 C25.1482737,24.9779749 26.1971108,24.5713615 26.9902166,23.773104 C28.1837315,22.5718991 28.5896931,20.7151027 28.5721096,19.3776472 C28.5335495,16.5032481 28.5822895,15.600206 28.6048087,15.3451179 L28.6615693,12.3543254 L32.4568169,13.002585 C34.7509936,13.5384226 36.176178,15.1086651 36.176178,17.1004901 L36.176178,19.3831461 C36.176178,28.0310883 29.9871142,32.5557694 23.8736283,32.5557694" id="Fill-20" fill="#F89C1C"></path>
                    <path d="M14.7222476,12.4711771 L14.7611163,19.5571253 C14.7611163,22.5781618 15.7519588,25.1259871 17.6259838,26.9274889 C19.2831463,28.5200325 21.502362,29.3968021 23.8736591,29.3968021 C29.8563489,29.3968021 32.9865104,24.359501 32.9865104,19.3829933 C32.9865104,18.9501074 32.9846595,18.659582 32.9834256,18.4231292 C32.9815747,18.0565356 32.9806493,17.8179443 32.9865104,17.3826144 C32.9865104,16.6252932 32.6286719,16.4123635 32.2788539,16.3045238 C32.1011686,16.2498403 31.9231748,16.2027941 31.7636899,16.1643018 L31.7636899,16.4542162 C31.7636899,16.4542162 31.7698595,17.9276169 31.7615305,19.3860483 C31.7383944,23.6024853 29.2600542,28.1406082 23.8742761,28.1406082 C21.8796349,28.1406082 19.920469,27.3612913 18.4983694,26.0021457 C17.3517437,24.9066419 15.9854793,22.8992366 15.9860962,19.5595692 L15.9860962,13.532771 C15.9860962,12.9101729 15.7195682,12.7513157 15.4878987,12.6822739 C15.2978741,12.6257574 14.9964877,12.5438848 14.7222476,12.4711771 M23.8736591,30.3804949 C21.2426206,30.3804949 18.7778536,29.404745 16.9343683,27.6331816 C14.8629152,25.642273 13.7681144,22.850663 13.7681144,19.5598747 L13.7221507,11.194515 L14.3471342,11.3555107 C14.3872367,11.3658975 15.3370512,11.6105987 15.7735525,11.7404339 C16.5509258,11.9713879 16.9787896,12.6080387 16.9787896,13.532771 L16.9787896,19.5598747 C16.9784812,21.9299021 17.7422813,23.9131733 19.188134,25.2946201 C20.4263786,26.4784118 22.134749,27.1572209 23.8742761,27.1572209 C28.5817034,27.1572209 30.7478603,23.1259137 30.7688371,19.3805494 C30.7768576,17.9263949 30.770688,16.4569657 30.770688,16.4563547 L30.770688,14.9713452 L31.3521756,15.0715475 C31.3771626,15.0758244 31.9663622,15.1781651 32.5737622,15.3654333 C33.2147867,15.5627829 33.9795123,16.0741809 33.9795123,17.3896408 C33.9733427,17.8237487 33.9745766,18.0580631 33.976736,18.4179358 C33.9779699,18.6559161 33.9795123,18.9476635 33.9795123,19.3829933 C33.9795123,26.6027481 28.8954291,30.3804949 23.8736591,30.3804949" id="Fill-22" fill="#FEFEFE"></path>
                </g>
            </g>
        </g>
    </g>
</svg>